<svg width="361" height="223" xmlns="http://www.w3.org/2000/svg" xmlns:xlink="http://www.w3.org/1999/xlink" xml:space="preserve" overflow="hidden"><defs><clipPath id="clip0"><rect x="422" y="1399" width="361" height="223"/></clipPath></defs><g clip-path="url(#clip0)" transform="translate(-422 -1399)"><rect x="422" y="1399" width="361" height="223" fill="#92ACC5"/><path d="M3.4375-1.6708e-05 3.43783 67.4438-3.43717 67.4438-3.4375 1.6708e-05ZM19.0111 41.6757 0.000360999 74.2659-19.0107 41.6759C-19.9673 40.036-19.4134 37.9312-17.7735 36.9746-16.1337 36.018-14.0288 36.5719-13.0722 38.2118L2.96956 65.7117-2.96892 65.7117 13.0726 38.2116C14.0292 36.5718 16.134 36.0178 17.7739 36.9744 19.4138 37.931 19.9677 40.0358 19.0111 41.6757Z" fill="#E8E8E8" transform="matrix(-1 0 0 1 460.5 1473.5)"/><path d="M507 1510.5C507 1457.76 549.757 1415 602.5 1415 655.243 1415 698 1457.76 698 1510.5 698 1563.24 655.243 1606 602.5 1606 549.757 1606 507 1563.24 507 1510.5Z" fill="#336699" fill-rule="evenodd"/><path d="M599.979 1464.5 606.021 1464.5 606.021 1498.3 606.021 1498.3 632.719 1498.3 632.719 1498.3 638.76 1498.3 638.76 1498.3 665.458 1498.3 665.458 1498.3 671.5 1498.3 671.5 1536.5 665.458 1536.5 665.458 1503.49 638.76 1503.49 638.76 1536.5 632.719 1536.5 632.719 1503.49 606.021 1503.49 606.021 1536.5 599.979 1536.5 599.979 1503.49 570.26 1503.49 570.26 1536.5 564.219 1536.5 564.219 1503.49 540.542 1503.49 540.542 1536.5 534.5 1536.5 534.5 1503.49 534.5 1498.3 540.542 1498.3 564.219 1498.3 564.219 1498.3 570.26 1498.3 570.26 1498.3 599.979 1498.3 599.979 1498.3Z" stroke="#E8E8E8" stroke-width="6.875" stroke-miterlimit="8" fill="#FFFFFF" fill-rule="evenodd"/></g></svg>