<svg width="361" height="223" xmlns="http://www.w3.org/2000/svg" xmlns:xlink="http://www.w3.org/1999/xlink" xml:space="preserve" overflow="hidden"><defs><clipPath id="clip0"><rect x="811" y="1399" width="361" height="223"/></clipPath><linearGradient x1="892" y1="1510.5" x2="1083" y2="1510.5" gradientUnits="userSpaceOnUse" spreadMethod="reflect" id="fill1"><stop offset="0" stop-color="#20817E"/><stop offset="0.5" stop-color="#00AF50"/><stop offset="1" stop-color="#00A01B"/></linearGradient></defs><g clip-path="url(#clip0)" transform="translate(-811 -1399)"><rect x="988" y="1399" width="184" height="223" fill="#7FCC7F"/><rect x="811" y="1399" width="177" height="223" fill="#92ACC5"/><path d="M892 1510.5C892 1457.76 934.757 1415 987.5 1415 1040.24 1415 1083 1457.76 1083 1510.5 1083 1563.24 1040.24 1606 987.5 1606 934.757 1606 892 1563.24 892 1510.5Z" fill="url(#fill1)" fill-rule="evenodd"/><path d="M983.765 1439 991.234 1439 991.234 1486.88 1048 1486.88 1048 1497 991.234 1497 991.234 1497 983.765 1497 983.765 1497 927 1497 927 1486.88 983.765 1486.88Z" fill="#E8E8E8" fill-rule="evenodd"/><path d="M991.235 1582 983.765 1582 983.765 1534.12 927 1534.12 927 1524 983.765 1524 983.765 1524 991.235 1524 991.235 1524 1048 1524 1048 1534.12 991.235 1534.12Z" fill="#E8E8E8" fill-rule="evenodd"/></g></svg>