<svg width="191" height="191" xmlns="http://www.w3.org/2000/svg" xmlns:xlink="http://www.w3.org/1999/xlink" xml:space="preserve" overflow="hidden"><defs><clipPath id="clip0"><rect x="496" y="363" width="191" height="191"/></clipPath><linearGradient x1="496" y1="458.5" x2="687" y2="458.5" gradientUnits="userSpaceOnUse" spreadMethod="reflect" id="fill1"><stop offset="0" stop-color="#20817E"/><stop offset="0.5" stop-color="#00AF50"/><stop offset="1" stop-color="#00A01B"/></linearGradient></defs><g clip-path="url(#clip0)" transform="translate(-496 -363)"><path d="M496 458.5C496 405.757 538.757 363 591.5 363 644.243 363 687 405.757 687 458.5 687 511.243 644.243 554 591.5 554 538.757 554 496 511.243 496 458.5Z" fill="url(#fill1)" fill-rule="evenodd"/><g><g><g><path d="M121.792 55.5001C123.495 55.5001 124.875 54.1197 124.875 52.4167L124.875 44.7084C124.875 43.4993 124.169 42.4016 123.068 41.901L89.1516 26.4843C88.918 26.3816 88.6726 26.3087 88.4209 26.2669L87.8551 21.2396C87.798 20.7274 87.6136 20.2376 87.3186 19.8151L76.5269 4.39838C75.551 3.00288 73.6285 2.66269 72.233 3.63858 71.9373 3.84543 71.6802 4.1026 71.4733 4.39838L60.6816 19.8151C60.3865 20.2376 60.2022 20.7274 60.1451 21.2396L59.5793 26.2669C59.3276 26.3084 59.0821 26.3815 58.8486 26.4843L24.9319 41.901C23.8313 42.4016 23.1247 43.4993 23.125 44.7084L23.125 52.4167C23.125 54.1197 24.5054 55.5001 26.2084 55.5001 27.9113 55.5001 29.2917 54.1197 29.2917 52.4167L29.2917 47.7917 57.1666 47.7917 55.5833 61.8887 24.938 75.8177C23.835 76.3164 23.1258 77.4146 23.125 78.6251L23.125 86.3334C23.125 88.0364 24.5054 89.4168 26.2084 89.4168 27.9113 89.4168 29.2917 88.0364 29.2917 86.3334L29.2917 81.7084 53.3556 81.7084 52.4892 89.4276 32.1006 140.446C31.4685 142.027 32.2378 143.821 33.819 144.454 34.5765 144.757 35.4232 144.747 36.1737 144.427L73.9245 128.33 111.9 144.536C113.466 145.205 115.278 144.479 115.947 142.913 116.269 142.162 116.278 141.314 115.975 140.555L95.5233 89.4291 94.6584 81.7084 118.708 81.7084 118.708 86.3334C118.708 88.0364 120.089 89.4168 121.792 89.4168 123.495 89.4168 124.875 88.0364 124.875 86.3334L124.875 78.6251C124.875 77.416 124.169 76.3183 123.068 75.8177L92.4292 61.8887 90.8444 47.7917 118.708 47.7917 118.708 52.4167C118.708 54.1197 120.089 55.5001 121.792 55.5001ZM65.1047 32.375 82.9078 32.375 83.9469 41.625 64.0594 41.625ZM74.0001 11.544 81.8148 22.7072 82.2141 26.2084 65.7969 26.2084 66.1915 22.7072ZM40.4488 41.625 58.7946 33.2846 57.8604 41.625ZM87.7579 75.5418 60.2546 75.5418 61.2937 66.2917 86.7188 66.2917ZM40.4488 75.5418 54.7863 69.0267 54.0494 75.5418ZM91.1126 95.0161 95.3506 105.604 81.4587 99.3605ZM95.4909 112.428 73.9245 121.625 52.3766 112.428 73.9369 102.738ZM52.6942 105.523 56.8706 95.0701 66.4104 99.3574ZM40.5767 135.843 47.9998 117.267 66.062 124.975ZM81.7793 124.978 99.9957 117.213 107.49 135.95ZM89.2749 89.0822 73.9323 95.9781 58.7221 89.1408 59.5608 81.7084 88.4517 81.7084ZM107.564 75.5418 93.9632 75.5418 93.2309 69.0267ZM86.0251 60.1251 61.9859 60.1251 63.3734 47.7917 84.6376 47.7917ZM89.2148 33.2846 107.564 41.625 90.1521 41.625Z" fill="#FFFFFF" transform="matrix(1.00675 0 0 1 517 384)"/></g></g></g></g></svg>