<svg width="361" height="223" xmlns="http://www.w3.org/2000/svg" xmlns:xlink="http://www.w3.org/1999/xlink" xml:space="preserve" overflow="hidden"><defs><clipPath id="clip0"><rect x="421" y="661" width="361" height="223"/></clipPath></defs><g clip-path="url(#clip0)" transform="translate(-421 -661)"><rect x="421" y="661" width="361" height="223" fill="#C99796"/><path d="M3.4375-1.6708e-05 3.43783 67.4438-3.43717 67.4438-3.4375 1.6708e-05ZM19.0111 41.6757 0.000360999 74.2659-19.0107 41.6759C-19.9673 40.036-19.4134 37.9312-17.7735 36.9746-16.1337 36.018-14.0288 36.5719-13.0722 38.2118L2.96956 65.7117-2.96892 65.7117 13.0726 38.2116C14.0292 36.5718 16.134 36.0178 17.7739 36.9744 19.4138 37.931 19.9677 40.0358 19.0111 41.6757Z" fill="#E8E8E8" transform="matrix(1 0 0 -1 746.5 809.75)"/><path d="M3.4375-1.6708e-05 3.43783 67.4438-3.43717 67.4438-3.4375 1.6708e-05ZM19.0111 41.6757 0.000360999 74.2659-19.0107 41.6759C-19.9673 40.036-19.4134 37.9312-17.7735 36.9746-16.1337 36.018-14.0288 36.5719-13.0722 38.2118L2.96956 65.7117-2.96892 65.7117 13.0726 38.2116C14.0292 36.5718 16.134 36.0178 17.7739 36.9744 19.4138 37.931 19.9677 40.0358 19.0111 41.6757Z" fill="#E8E8E8" transform="matrix(-1 0 0 1 459.5 735.5)"/></g></svg>