<svg width="381" height="298" xmlns="http://www.w3.org/2000/svg" xmlns:xlink="http://www.w3.org/1999/xlink" xml:space="preserve" overflow="hidden"><g transform="translate(-401 -975)"><rect x="421" y="997" width="361" height="269" fill="#8C8C8C"/><text fill="#FFFFFF" font-family="Aptos,Aptos_MSFontService,sans-serif" font-weight="400" font-size="83" transform="matrix(1 0 0 1 450.751 1077)">N</text><rect x="445" y="1104" width="146" height="133" fill="#AEABAB"/><text fill="#FFFFFF" font-family="Aptos,Aptos_MSFontService,sans-serif" font-weight="400" font-size="83" transform="matrix(1 0 0 1 482.899 1197)">Z₁</text><text fill="#FFFFFF" font-family="Aptos,Aptos_MSFontService,sans-serif" font-weight="400" font-size="46" transform="matrix(1 0 0 1 634.552 1232)">B</text><text fill="#FFFFFF" font-family="Aptos,Aptos_MSFontService,sans-serif" font-weight="400" font-size="46" transform="matrix(1 0 0 1 715.98 1232)">L</text><path d="M3.4375-1.6708e-05 3.43783 67.4438-3.43717 67.4438-3.4375 1.6708e-05ZM19.0111 41.6757 0.000360999 74.2659-19.0107 41.6759C-19.9673 40.036-19.4134 37.9312-17.7735 36.9746-16.1337 36.018-14.0288 36.5719-13.0722 38.2118L2.96956 65.7117-2.96892 65.7117 13.0726 38.2116C14.0292 36.5718 16.134 36.0178 17.7739 36.9744 19.4138 37.931 19.9677 40.0358 19.0111 41.6757Z" fill="#E8E8E8" transform="matrix(-1 0 0 1 727.5 1104.5)"/><path d="M646.062 1178.75 646.062 1111.31 652.937 1111.31 652.937 1178.75ZM630.489 1137.07 649.499 1104.48 668.51 1137.07C669.467 1138.71 668.913 1140.82 667.273 1141.78 665.633 1142.73 663.529 1142.18 662.572 1140.54L646.53 1113.04 652.469 1113.04 636.427 1140.54C635.471 1142.18 633.366 1142.73 631.726 1141.78 630.086 1140.82 629.532 1138.71 630.489 1137.07Z" fill="#E8E8E8"/></g></svg>